<?xml version="1.0"?>
<svg width="345" height="343" xmlns="http://www.w3.org/2000/svg" xmlns:svg="http://www.w3.org/2000/svg">
 <!-- Created with SVG-edit - https://github.com/SVG-Edit/svgedit-->
 <g class="layer">
  <title>Layer 1</title>
  <g class="layer" id="svg_1"/>
  <path stroke="#000000" fill="#ff0000" stroke-linejoin="bevel" stroke-linecap="square" d="m173.140144,3.787099c-93.892754,0 -170.0059,75.217716 -170.0059,168.00588c0,92.788165 76.113146,168.00588 170.0059,168.00588c93.892754,0 170.0059,-75.217716 170.0059,-168.00588c0,-92.788165 -76.113146,-168.00588 -170.0059,-168.00588zm36.939496,252.031934c-0.924068,0.739809 -2.140569,1.502737 -1.228202,2.392822c0.912378,0.901645 -1.052744,1.514297 -1.052744,1.965114s1.216501,2.843639 0.608245,3.884c-0.608245,1.063469 -1.064434,2.577766 -1.520623,3.479411c-0.456189,0.890085 -1.532324,1.791718 -1.216501,3.144191c0.292433,1.340902 -1.216501,0.890085 -1.216501,2.242546c0,1.340902 1.356867,0.751369 1.052744,2.404382c-0.292433,1.664573 -1.052744,2.11539 -1.052744,3.294456c0,1.202185 0.748611,2.855199 0.748611,3.306015s-0.748611,1.965114 -1.813056,3.144191c-1.076135,1.202185 -1.813056,1.965114 -1.684379,2.693363c0.163756,0.751369 1.216501,1.664573 1.064434,2.126949c-0.152067,0.427697 -1.508933,1.941994 -1.356867,2.993915c0.163756,1.040361 1.508933,0.612652 1.813056,1.340902c0.304122,0.751369 -1.813056,1.364021 -0.912378,2.11539c0.912378,0.739809 2.140569,0.589533 1.824745,2.404382c-0.22225,1.294663 0.748611,1.884196 1.473842,2.288785c-10.422134,2.554647 -21.265354,4.068944 -32.48289,4.068944c-74.393663,0 -134.90285,-59.797336 -134.90285,-133.315799c0,-23.962857 6.51529,-46.411427 17.756229,-65.854512c0.924068,-0.485496 1.602507,-0.797607 2.000203,-0.71669c0.760311,0.150276 0.924068,1.202185 2.140569,1.502737c1.216501,0.300552 2.280934,-0.901645 3.041246,-1.352461c0.748611,-0.450817 1.356867,-2.254106 0.596555,-2.10383c-0.760311,0.150276 -2.737124,0 -2.737124,0s2.140569,-1.202185 2.140569,-1.953554s0.292433,-1.953554 1.508933,-2.404382c1.2048,-0.462376 1.2048,-0.161836 0.444488,1.641454c-0.760311,1.803278 1.532324,1.051921 2.433001,0.300552s1.520623,-0.150276 3.181612,-1.202185c1.67269,-1.051921 1.67269,-1.653013 2.585068,-1.653013c0.912378,0 2.585068,1.653013 3.497435,1.051921c0.900677,-0.601093 3.497435,0.751369 5.018058,0.751369c1.508933,0 6.374925,1.953554 7.299004,1.953554c0.912378,0 3.649502,1.040361 3.801557,2.993915c0.152067,1.953554 1.052744,1.803278 1.965111,1.803278s3.041246,0.751369 3.041246,1.502737c0,0.751369 -0.608245,3.756843 0.912378,4.508212c1.508933,0.739809 2.88919,1.953554 3.497435,1.653013c0.608245,-0.300552 0,-2.693363 -0.748611,-3.005475c-0.760311,-0.300552 -0.315823,-1.352461 -0.608245,-1.953554c-0.304122,-0.589533 0.912378,-0.589533 1.368567,0.450817c0.456189,1.051921 1.67269,3.005475 2.433001,3.005475c0.748611,0 2.433001,1.803278 1.965111,2.855199c-0.456189,1.051921 0.456189,2.554647 1.824745,2.554647c1.356867,0 3.041246,2.10383 3.649502,2.254106c0.608245,0.150276 1.368567,0.901645 1.368567,1.352461c0,0.462376 0.760311,3.005475 0.760311,4.057384c0,1.040361 -0.46789,5.248021 -0.619946,6.901023s1.216501,4.508212 2.737124,6.010949c1.508933,1.502737 2.87749,4.357936 3.789868,4.959029c0.924068,0.601093 1.520623,2.254106 2.88919,2.10383c1.368567,-0.150276 2.280934,0.901645 3.497435,3.005475c1.216501,2.10383 2.433001,5.548562 3.34538,5.849114c0.912378,0.300552 2.433001,1.352461 1.660989,2.10383c-0.748611,0.739809 -1.965111,2.404382 -0.596555,2.404382c1.368567,0 1.824745,-0.751369 2.88919,0.612652c1.052744,1.340902 2.433001,2.09227 2.269245,3.005475c-0.152067,0.890085 1.216501,1.190626 1.824745,1.340902c0.608245,0.150276 1.976812,2.855199 3.34538,1.653013c1.368567,-1.202185 -1.813056,-2.993915 -2.737124,-3.768403c-0.912378,-0.739809 0,-2.392822 -2.128879,-4.045824c-2.128879,-1.653013 -1.824745,-2.855199 -3.34538,-4.057384c-1.520623,-1.202185 -2.725423,-2.254106 -1.216501,-3.306015c1.520623,-1.051921 1.67269,1.051921 2.280934,2.404382c0.608245,1.340902 3.789868,4.057384 5.158424,5.248021c1.368567,1.202185 3.813258,5.409845 4.56188,5.409845s2.88919,2.404382 2.88919,2.404382s1.2048,1.941994 0.748611,2.543087c-0.456189,0.601093 0.619946,2.855199 1.684379,3.456291c1.052744,0.601093 5.322192,2.543087 5.930436,2.855199c0.608245,0.312112 1.813056,2.554647 3.497435,2.554647c1.660989,0 2.88919,0.161836 3.34538,0.612652c0.456189,0.439257 1.813056,2.242546 2.737124,1.202185c0.912378,-1.063469 1.052744,-1.514297 2.433001,-1.514297c1.368567,0 1.965111,1.051921 2.725423,1.803278c0.760311,0.751369 2.88919,2.716482 3.953624,2.566206c1.064434,-0.150276 2.433001,1.202185 3.193313,0.739809s1.976812,0.288992 2.573367,0.601093c0.631647,0.300552 2.737124,1.364021 2.596758,3.144191c-0.152067,1.814838 1.2048,2.254106 2.128879,2.704923c0.912378,0.450817 2.128879,1.502737 2.90088,2.254106c0.748611,0.728249 2.409611,0.890085 2.87749,1.340902c0.456189,0.450817 0.760311,1.352461 2.128879,0.601093c1.356867,-0.739809 1.076135,-2.09227 1.076135,-2.09227s1.508933,-0.300552 2.269245,0.300552c0.748611,0.577973 1.216501,2.543087 1.684379,2.843639c0.444488,0.300552 1.345166,2.554647 0.736921,4.184541c-0.596555,1.676133 -0.444488,3.306015 -1.064434,3.306015c-0.608245,0 -1.356867,1.965114 -2.280934,2.415942c-0.888976,0.450817 -3.333679,2.554647 -3.181612,3.306015c0.152067,0.728249 1.532324,2.982355 1.216501,4.045824c-0.292433,1.051921 -2.269245,2.254106 -1.801355,3.907108c0.444488,1.664573 3.649502,2.11539 3.778167,3.606567c0.163756,1.514297 2.444702,4.820312 2.748825,6.31149c0.292433,1.502737 2.87749,3.144191 2.87749,5.236461c0,2.126949 3.649502,3.467851 4.409813,3.606567c0.736921,0.150276 2.128879,1.514297 3.181612,1.965114s1.976812,1.340902 2.725423,2.554647s0.619946,3.017034 0.619946,3.456291c0,0.450817 -0.456189,5.086185 -0.912378,7.791108c-0.46789,2.716482 0.584854,4.820312 -0.315823,5.583241l0.000045,-0.000022zm-98.162201,-139.650409c0.456189,0.150276 1.368567,1.051921 1.824745,1.051921c0.46789,0 2.737124,1.803278 3.34538,2.404382c0.619946,0.601093 0.619946,2.254106 -0.152067,2.404382s-1.216501,-1.653013 -1.368567,-2.404382c-0.152067,-0.751369 -1.67269,-0.751369 -2.433001,-1.202185c-0.760311,-0.450817 -2.456392,-2.670244 -1.216501,-2.254106l0.000011,-0.000011zm195.856524,60.363749c-1.684379,2.10383 -1.520623,3.144191 -2.280934,3.306015c-0.748611,0.150276 0.760311,0.751369 1.052744,2.242546c0.257341,1.294663 -0.760311,2.589326 0.736921,3.779963c-5.684796,53.393368 -43.396305,97.49288 -93.764089,113.132894c-0.081884,-0.127157 -0.22225,-0.288992 -0.24564,-0.393018c-0.315823,-0.901645 -0.315823,-2.693363 0.748611,-3.294456c1.064434,-0.612652 3.649502,-2.693363 4.246057,-3.144191c0.608245,-0.462376 1.520623,-2.554647 1.064434,-2.855199c-0.444488,-0.300552 -2.713733,0 -3.041246,-0.450817c-0.304122,-0.450817 -0.304122,-1.063469 1.216501,-2.10383c1.520623,-1.051921 2.280934,-2.566206 2.88919,-3.005475c0.608245,-0.450817 1.813056,-1.352461 2.280934,-2.415942c0.444488,-1.040361 -0.47958,-0.450817 -1.380257,-0.450817s-1.368567,-1.641454 -1.368567,-2.392822s2.280934,0.300552 3.965325,0.601093c1.67269,0.277433 0.900677,-0.751369 0.748611,-1.641454c-0.152067,-0.901645 0.304122,-2.415942 1.228202,-1.965114c0.888976,0.450817 5.602924,-0.150276 6.211168,-0.300552c0.608245,-0.150276 2.269245,-2.843639 2.87749,-3.606567c0.619946,-0.751369 0.748611,-1.491178 0,-1.941994c-0.760311,-0.462376 -1.67269,-2.126949 -1.965111,-2.554647c-0.304122,-0.473936 -0.456189,-3.16731 -0.152067,-3.930227c0.292433,-0.728249 0,4.357936 2.117178,4.970588c2.140569,0.601093 3.34538,0.901645 5.322192,-0.901645c1.976812,-1.791718 3.485746,-3.005475 3.649502,-4.1961c0.152067,-1.202185 0.608245,-2.415942 1.368567,-2.843639c0.760311,-0.450817 1.216501,1.190626 2.128879,-0.751369c0.912378,-1.965114 1.824745,-1.814838 2.737124,-3.456291c0.900677,-1.664573 -1.520623,-3.756843 0.280732,-4.970588c1.836446,-1.190626 5.029759,-2.693363 5.029759,-2.693363s0.912378,-0.450817 2.737124,-0.901645c1.813056,-0.439257 3.789868,-0.161836 4.398112,-1.040361c0.608245,-0.913204 1.216501,-2.855199 2.128879,-3.907108c0.924068,-1.063469 1.976812,-2.704923 1.520623,-3.456291c-0.456189,-0.751369 1.216501,-4.068944 1.064434,-4.959029c-0.152067,-0.901645 -1.520623,-3.017034 0.760311,-4.808753s4.702246,-4.519772 4.866003,-5.248021c0.140366,-0.751369 1.976812,-3.907108 1.801355,-5.421405c-0.140366,-1.491178 -1.801355,-3.294456 -2.865789,-3.756843c-1.076135,-0.427697 -3.34538,-0.577973 -4.257747,-1.780159s-3.497435,-2.404382 -4.409813,-2.10383c-0.900677,0.300552 -2.433001,0.589533 -3.649502,-0.173395c-1.216501,-0.728249 -3.181612,-1.653013 -3.941923,-2.242546c-0.772012,-0.589533 -2.737124,-1.040361 -3.649502,-1.040361s-0.760311,-0.612652 -2.128879,1.190626c-1.368567,1.814838 0,2.415942 -2.433001,2.10383c-2.444702,-0.277433 0.292433,-0.439257 1.684379,-2.242546c1.345166,-1.791718 -0.163756,-2.855199 -1.684379,-2.392822c-1.520623,0.450817 -0.456189,1.352461 -2.88919,1.803278c-2.4213,0.439257 -2.4213,-1.063469 -0.900677,-1.352461c1.520623,-0.300552 4.246057,-1.653013 4.246057,-2.242546c0,-0.612652 -0.304122,-2.265666 -1.520623,-2.265666s-0.912378,-1.491178 -2.725423,-3.433172c-1.824745,-1.965114 -4.105691,-3.16731 -5.942137,-2.878318c-1.801355,0.300552 -3.181612,0.751369 -4.09399,-0.878525c-0.912378,-1.664573 -1.976812,-1.965114 -2.596758,-2.855199c-0.596555,-0.901645 -2.128879,0 -2.585068,-0.450817s-0.456189,-0.450817 -0.456189,-0.450817s-1.976812,0.450817 -0.900677,-0.901645c1.052744,-1.352461 1.508933,-3.907108 1.052744,-3.756843c-0.444488,0.150276 -1.216501,2.265666 -1.965111,2.11539c-0.748611,-0.150276 -0.163756,-0.462376 -1.684379,-1.352461c-1.520623,-0.901645 -3.941923,-0.150276 -3.941923,0.601093c0,0.751369 -0.760311,1.352461 -0.760311,1.352461s-0.456189,-0.439257 -0.912378,-1.352461c-0.456189,-0.901645 -2.585068,-1.051921 -3.649502,-0.150276c-1.052744,0.901645 -1.660989,-2.265666 -2.4213,-2.265666s-2.269245,0.751369 -3.041246,2.126949c-0.748611,1.340902 -0.444488,3.294456 -1.076135,3.144191c-0.584854,-0.150276 -0.736921,-2.693363 -0.584854,-3.606567c0.140366,-0.913204 1.813056,-2.404382 0.584854,-2.704923c-1.2048,-0.300552 -3.029556,1.502737 -3.778167,1.653013c-0.760311,0.150276 -2.280934,1.202185 -3.193313,2.415942c-0.900677,1.190626 -1.356867,1.941994 -2.280934,2.392822c-0.900677,0.450817 -2.257544,0 -1.953422,-0.450817c0.292433,-0.450817 -2.596758,-2.09227 -3.052947,-1.502737c-0.46789,0.601093 -1.813056,1.051921 -3.181612,1.664573c-1.368567,0.601093 -2.596758,-0.751369 -2.88919,-1.352461s-0.924068,-0.739809 -1.064434,-2.704923c-0.152067,-1.941994 0.315823,-4.057384 0.760311,-5.248021c0.444488,-1.202185 -2.280934,-3.606567 -3.34538,-3.467851c-1.064434,0.173395 -2.128879,1.213745 -3.181612,1.051921c-1.076135,-0.138716 -0.608245,-0.439257 -2.280934,-0.439257c-1.67269,0 -0.304122,-0.288992 0,-1.653013c0.292433,-1.340902 -0.608245,-3.155751 1.076135,-4.357936c1.660989,-1.202185 1.064434,-4.057384 0,-4.1961c-1.076135,-0.161836 -3.052947,0.450817 -4.409813,0.300552c-1.356867,-0.161836 -2.433001,1.051921 -1.976812,2.392822c0.456189,1.352461 -0.760311,2.254106 -1.216501,2.11539c-0.456189,-0.150276 -1.052744,-0.901645 -2.737124,0.300552c-1.660989,1.190626 -2.269245,0.739809 -3.941923,-0.601093c-1.67269,-1.364021 -3.497435,-2.704923 -3.801557,-4.808753c-0.304122,-2.10383 -0.46789,-4.20766 0.152067,-5.409845c0.596555,-1.202185 0.596555,-3.294456 -0.304122,-3.606567c-0.912378,-0.288992 1.052744,-1.791718 2.117178,-2.09227c1.076135,-0.300552 2.737124,-1.653013 3.041246,-2.254106c0.304122,-0.601093 1.824745,-0.462376 3.485746,-0.462376c1.67269,0 1.976812,0 3.649502,0.901645c1.67269,0.901645 1.976812,-0.450817 1.976812,-0.901645c0,-0.450817 0.608245,-1.352461 2.433001,-1.202185c1.824745,0.150276 4.398112,-0.601093 4.866003,-0.150276s1.356867,2.254106 2.269245,1.653013c0.924068,-0.589533 1.216501,-1.653013 1.532324,0.161836c0.292433,1.791718 1.052744,4.508212 2.433001,4.959029c1.356867,0.450817 0.608245,2.242546 1.965111,2.392822c1.345166,0.150276 1.988513,-2.843639 1.532324,-3.89556c-0.46789,-1.040361 -1.380257,-4.1961 -2.140569,-4.947469c-0.748611,-0.751369 -0.748611,-2.704923 0.748611,-3.306015c1.520623,-0.601093 5.170125,-3.606567 6.222869,-4.496652c1.076135,-0.913204 3.953624,-1.664573 3.052947,-2.866758c-0.912378,-1.202185 -1.216501,-1.941994 -1.216501,-2.855199s0.912378,-0.601093 1.368567,0s2.269245,-0.901645 1.813056,-1.653013c-0.444488,-0.739809 -0.304122,-1.791718 0.760311,-1.653013c1.064434,0.150276 1.356867,-0.751369 0.912378,-1.352461c-0.456189,-0.601093 1.064434,-1.352461 2.128879,-1.051921c1.076135,0.300552 3.801557,-0.150276 4.257747,-0.751369c0.444488,-0.601093 -0.912378,-1.202185 -0.912378,-2.404382c0,-1.202185 1.813056,-2.254106 2.88919,-2.404382c1.064434,-0.150276 2.4213,0 2.585068,-0.450817c0.140366,-0.450817 1.67269,-1.653013 1.813056,-0.601093c0.163756,1.051921 0,2.855199 1.216501,2.855199c1.216501,0 2.713733,-1.352461 3.181612,-1.491178c0.444488,-0.150276 3.34538,-0.751369 3.953624,-0.901645c0.608245,-0.150276 4.246057,-0.450817 3.801557,-1.502737c-0.456189,-1.040361 -0.912378,-2.09227 -1.380257,-2.543087c-0.456189,-0.450817 -0.900677,0.150276 -1.520623,0.901645c-0.596555,0.751369 -1.67269,0.751369 -1.965111,0.150276c-0.304122,-0.589533 0.140366,-2.392822 -0.912378,-1.803278c-1.076135,0.601093 -1.216501,1.202185 -1.836446,0.901645c-0.608245,-0.300552 -1.2048,-1.352461 -1.2048,-1.352461s1.508933,-0.739809 0.444488,-2.10383c-1.052744,-1.352461 -2.585068,-1.051921 -4.09399,-0.288992c-1.520623,0.739809 -1.380257,0.589533 -3.193313,1.040361s-2.737124,0.901645 -2.737124,0.901645s2.444702,-1.491178 3.497435,-2.404382c1.064434,-0.901645 2.444702,-1.352461 3.34538,-2.254106c0.912378,-0.901645 3.333679,0.450817 3.333679,0.450817s1.228202,-1.202185 1.228202,-0.450817s-0.315823,2.704923 0.596555,2.704923c0.924068,0 3.497435,-1.202185 2.456392,-1.514297c-1.087836,-0.300552 1.508933,0 2.561666,-0.751369c1.076135,-0.751369 2.269245,-0.751369 2.88919,-1.040361c0.608245,-0.300552 1.076135,-1.653013 2.128879,-1.653013c1.076135,0 1.520623,1.352461 0,2.254106s-1.67269,3.155751 -2.433001,3.756843c-0.748611,0.601093 -0.304122,1.352461 0.912378,1.202185c1.216501,-0.150276 2.269245,0.150276 3.34538,-0.150276s1.67269,0.300552 1.965111,0.751369c0.304122,0.450817 1.216501,-0.450817 1.216501,-0.450817s1.976812,-0.450817 2.585068,0.300552c0.619946,0.739809 1.076135,-0.450817 0.619946,-1.202185c-0.456189,-0.739809 -1.076135,-1.491178 -1.520623,-2.404382c-0.456189,-0.901645 -1.064434,-1.202185 -2.269245,-0.901645c-1.216501,0.300552 -1.520623,-0.300552 -2.280934,-0.739809c-0.760311,-0.462376 -1.380257,0.601093 -0.760311,-0.462376c0.619946,-1.040361 0.912378,-1.352461 1.368567,-2.254106c0.456189,-0.901645 2.444702,-2.554647 0.456189,-2.993915c-1.976812,-0.462376 -2.596758,-0.751369 -2.88919,-1.653013c-0.304122,-0.901645 -2.585068,-2.554647 -3.181612,-2.554647c-0.619946,0 -2.725423,0 -2.88919,-0.751369c-0.152067,-0.751369 -1.67269,-2.404382 -2.433001,-3.155751c-0.748611,-0.751369 -3.649502,-4.057384 -4.105691,-4.357936c-0.456189,-0.300552 -1.064434,-0.150276 -2.433001,1.653013c-1.356867,1.814838 -2.573367,2.11539 -3.649502,1.664573c-1.064434,-0.450817 -1.216501,-0.300552 -2.257544,-1.502737c-1.087836,-1.202185 1.052744,-1.352461 0.596555,-2.10383c-0.46789,-0.739809 -2.88919,-1.051921 -4.409813,-1.202185c-1.520623,-0.150276 -2.585068,-1.803278 -4.866003,-1.953554c-2.269245,-0.150276 -5.006368,0.300552 -5.76668,0.300552c-0.748611,0 -0.748611,1.051921 -1.052744,2.704923c-0.315823,1.653013 1.052744,2.10383 -0.315823,2.404382c-1.356867,0.300552 -1.976812,0.450817 -0.608245,1.051921c1.368567,0.601093 3.193313,3.005475 3.193313,3.005475s0,1.352461 -1.076135,2.10383c-1.052744,0.751369 -2.128879,1.502737 -2.725423,0.612652c-0.619946,-0.913204 -2.280934,-0.751369 -1.813056,0.150276c0.444488,0.901645 1.356867,1.352461 1.356867,2.254106c0,0.890085 1.368567,3.144191 0.456189,3.89556c-0.912378,0.751369 -1.965111,0.161836 -2.725423,0.300552s-1.532324,-1.202185 -0.912378,-1.502737c0.596555,-0.300552 -0.163756,-2.554647 -0.163756,-2.554647s-1.813056,2.554647 -1.67269,1.202185c0.163756,-1.352461 -0.748611,-1.502737 -0.748611,-2.554647c0,-1.051921 -0.924068,-1.502737 -2.269245,-1.202185c-1.380257,0.300552 -3.041246,-0.462376 -5.638015,-0.913204c-2.573367,-0.450817 -3.637801,-0.739809 -5.76668,-1.803278c-2.128879,-1.051921 -2.88919,-0.300552 -3.953624,-0.150276c-1.064434,0.150276 -0.608245,-2.10383 -1.976812,-2.392822c-1.356867,-0.312112 -2.117178,0.288992 -2.4213,-1.664573c-0.304122,-1.941994 0.456189,-2.404382 3.789868,-4.508212c3.34538,-2.10383 2.88919,-3.005475 5.474247,-3.306015c2.573367,-0.300552 3.801557,0.300552 3.801557,-0.450817s0.608245,-3.756843 0.608245,-2.254106s3.064648,1.595215 1.684379,2.647124c-1.356867,1.051921 -0.608245,1.202185 0.46789,1.202185c1.064434,0 3.029556,-1.051921 3.029556,-1.051921s2.433001,-1.051921 3.041246,-0.150276c0.619946,0.901645 0.619946,1.803278 1.684379,1.803278s3.333679,-1.202185 1.356867,-2.254106c-1.965111,-1.051921 -3.181612,-0.901645 -4.398112,-2.10383s-0.912378,-0.751369 -2.280934,-0.450817c-1.356867,0.300552 -1.356867,-0.450817 -1.824745,-0.450817s-1.216501,0.300552 -1.520623,-0.300552c-0.292433,-0.601093 0.163756,-0.751369 1.69608,-0.751369c1.508933,0 3.333679,0.450817 3.333679,0.450817s1.813056,-0.601093 2.269245,-0.751369c0.456189,-0.150276 2.88919,-0.450817 2.433001,-1.791718c-0.46789,-1.352461 -1.976812,-1.352461 -2.433001,-1.803278s0.912378,-1.040361 1.67269,-1.352461c0.760311,-0.300552 2.88919,0 2.88919,0s1.368567,0.150276 1.368567,-0.450817s-0.327524,-1.352461 0.596555,-0.901645s0,1.803278 1.368567,1.502737c1.356867,-0.300552 1.67269,0 2.4213,0.450817c0.760311,0.450817 -0.152067,2.254106 -0.900677,2.554647c-0.760311,0.288992 -1.976812,0.890085 -0.304122,1.040361c1.684379,0.161836 2.87749,0.161836 2.87749,0.161836s1.076135,-1.051921 1.532324,-1.953554c0.444488,-0.901645 1.216501,-0.300552 1.813056,0c0.608245,0.288992 2.88919,0.751369 0.760311,1.352461c-2.140569,0.601093 -2.585068,1.352461 -3.041246,2.10383c-0.444488,0.751369 -0.619946,1.202185 -2.585068,0.751369c-1.988513,-0.450817 -3.041246,-0.300552 -3.497435,0.450817c-0.456189,0.739809 -0.152067,3.155751 0.619946,2.855199c0.736921,-0.300552 1.508933,-0.300552 2.4213,-0.601093c0.912378,-0.300552 4.56188,0.300552 5.462558,0.150276c0.912378,-0.150276 2.444702,1.502737 2.90088,1.202185c0.456189,-0.300552 1.368567,0.601093 2.269245,1.202185c0.912378,0.601093 0.608245,-1.352461 2.269245,-0.150276c1.684379,1.202185 0.760311,1.202185 1.684379,1.202185c0.888976,0 2.87749,0.150276 2.87749,0.150276s0.163756,-1.491178 1.684379,-1.202185c1.520623,0.300552 2.865789,1.953554 2.713733,0.739809c-0.140366,-1.190626 0.152067,-2.09227 -1.052744,-2.993915c-1.216501,-0.901645 -3.181612,-1.502737 -3.497435,-1.953554c-0.304122,-0.450817 -0.608245,-1.051921 -0.152067,-1.352461c0.456189,-0.288992 2.585068,0.150276 3.789868,0.913204c1.216501,0.751369 2.280934,1.502737 3.193313,0.901645c0.900677,-0.601093 1.988513,-0.901645 2.433001,-1.352461c0.444488,-0.462376 1.520623,-1.803278 1.520623,-1.803278s-4.57357,-0.589533 -5.158424,-1.352461c-0.619946,-0.751369 -2.748825,-1.803278 -3.357069,-1.803278s-2.269245,1.051921 -2.87749,-0.450817s-0.608245,-3.306015 -1.228202,-3.456291c-0.584854,-0.150276 -6.983181,-1.051921 -7.883858,-1.502737c-0.912378,-0.450817 -4.56188,-1.502737 -5.930436,-2.254106s-3.34538,-1.803278 -4.550179,-1.803278c-1.216501,0 -6.234559,0.601093 -7.146937,0.450817c-0.912378,-0.150276 -3.649502,0.300552 -4.713936,0.450817c-1.064434,0.150276 1.368567,2.10383 -0.900677,2.554647c-2.280934,0.450817 -1.976812,0.751369 -1.520623,-1.502737c0.444488,-2.254106 -1.532324,-2.855199 -3.497435,-1.953554c-1.976812,0.901645 -5.170125,1.502737 -4.409813,2.554647c0.760311,1.051921 -0.140366,1.814838 1.368567,2.855199c1.520623,1.051921 2.140569,1.352461 4.09399,1.202185c1.988513,-0.150276 3.965325,0.288992 3.965325,0.288992s0,1.814838 -0.748611,2.10383c-0.760311,0.300552 -1.976812,0.300552 -2.292635,1.202185c-0.292433,0.901645 -1.813056,1.352461 -1.813056,0.901645s0.760311,-1.953554 -0.304122,-2.704923c-1.052744,-0.751369 -1.368567,-0.901645 -2.585068,-0.150276c-1.216501,0.751369 -1.356867,1.051921 -1.976812,-0.150276c-0.608245,-1.202185 -2.433001,-2.254106 -2.433001,-2.254106s-1.216501,-1.491178 -2.128879,-2.242546c-0.900677,-0.751369 -2.573367,-0.601093 -2.737124,0.150276c-0.152067,0.739809 0.304122,1.491178 0.912378,2.855199c0.608245,1.352461 1.216501,3.89556 0.152067,4.057384c-1.064434,0.150276 -1.216501,0.300552 -2.280934,0.601093c-1.064434,0.300552 -1.520623,-0.450817 -1.520623,-1.653013s-0.46789,-2.254106 -0.152067,-2.704923c0.304122,-0.450817 -1.216501,0.312112 -2.737124,0c-1.520623,-0.288992 -2.725423,0.601093 -1.216501,1.063469c1.520623,0.450817 1.836446,2.242546 0.456189,2.693363c-1.368567,0.450817 -6.538692,0 -8.211371,0s-4.09399,0.450817 -4.56188,-0.450817c-0.456189,-0.901645 1.380257,-1.491178 2.433001,-1.491178c1.064434,0 4.246057,0.138716 5.462558,-1.502737c1.216501,-1.653013 -1.520623,-1.953554 -2.725423,-1.953554c-1.216501,0 -2.140569,-0.450817 -3.497435,-1.791718c-1.380257,-1.352461 0.912378,-2.254106 0.608245,-2.855199c-0.304122,-0.601093 -1.824745,-0.161836 -3.181612,-0.161836c-1.368567,0 -3.497435,-1.040361 -3.497435,0.161836c0,1.202185 1.67269,4.646917 0.608245,3.89556c-1.064434,-0.739809 -0.912378,-1.803278 -1.67269,-2.704923c-0.760311,-0.901645 -1.965111,-0.751369 -3.497435,-0.601093c-1.508933,0.150276 -4.09399,0.601093 -4.854302,0.450817c-0.748611,-0.150276 -0.152067,-0.150276 -1.824745,-0.901645c-1.660989,-0.751369 -2.433001,-0.601093 -3.649502,-1.352461c-1.2048,-0.774488 -0.140366,-1.063469 -2.269245,-1.213745c-2.117178,-0.150276 -1.965111,1.040361 -4.09399,0.751369c-2.128879,-0.300552 -2.737124,0.150276 -4.866003,0c-2.128879,-0.150276 -3.181612,-0.300552 -3.497435,0.751369c-0.292433,1.051921 -0.912378,2.855199 -1.824745,2.855199c-0.900677,0 -1.976812,1.051921 0.912378,1.202185c2.88919,0.150276 1.228202,1.491178 3.801557,1.352461c2.585068,-0.150276 4.866003,-0.150276 5.474247,-1.352461c0.608245,-1.202185 1.064434,-1.202185 1.368567,-0.751369c0.292433,0.450817 2.573367,3.144191 2.573367,3.144191s1.532324,1.202185 2.140569,1.502737c0.596555,0.300552 -0.608245,1.653013 -1.824745,0.901645c-1.216501,-0.751369 -3.497435,-0.589533 -4.409813,-1.340902c-0.912378,-0.751369 -5.018058,-0.751369 -6.082503,-0.601093c-1.052744,0.150276 -2.88919,-0.450817 -3.497435,-0.450817c-0.596555,0 -2.585068,1.502737 -2.585068,1.502737s-0.760311,-1.213745 -1.2048,-1.814838c-0.456189,-0.601093 -1.216501,0.601093 -1.824745,0.751369c-0.608245,0.150276 -2.433001,-1.202185 -4.257747,-0.601093c-1.824745,0.601093 -1.216501,1.202185 -3.801557,1.051921s-3.181612,-0.601093 -4.09399,-0.450817c-0.924068,0.150276 -0.924068,0.150276 -0.924068,0.150276s0.152067,0.601093 -0.900677,1.202185c-1.064434,0.601093 -1.836446,1.352461 -2.596758,0.450817c-0.748611,-0.901645 -1.2048,-0.901645 -1.660989,-1.051921c-0.46789,-0.150276 -1.380257,-0.901645 -3.34538,-0.462376c-1.976812,0.462376 -5.018058,-0.589533 -5.614613,-0.589533c-0.46789,0 -3.661203,-0.173395 -5.743289,-0.381459c24.669215,-26.494395 59.936033,-43.232557 99.168153,-43.232557c24.891465,0 48.157033,6.808545 68.194196,18.472093c-1.368567,0.832286 -3.731386,0.69357 -4.538478,0.265873c-0.912378,-0.497055 -1.848147,-0.901645 -5.556131,-0.70513c-3.707984,0.208074 -7.778584,1.41026 -6.95979,2.612445c0.842195,1.202185 -1.660989,1.907315 -2.304336,1.306223c-0.643336,-0.601093 -3.61441,0.69357 -3.427252,1.907315c0.187158,1.202185 -0.456189,2.600885 -2.046995,2.300345c-1.567415,-0.312112 -2.678642,0.69357 -2.772215,1.687692c-0.081884,1.005682 -3.61441,1.699252 -3.883441,1.699252c-0.280732,0 -4.81921,-0.092478 -3.158221,1.098148c1.134617,0.797607 1.754562,0.312112 3.158221,0.601093c1.391958,0.300552 2.503184,2.508408 3.240105,2.80896c0.72522,0.300552 1.754562,0 2.210751,-0.601093c0.46789,-0.601093 1.111226,-2.704923 1.111226,-2.704923s0,1.999793 1.134617,2.404382c1.111226,0.404578 3.87174,-0.300552 4.620362,-0.196515c0.748611,0.092478 5.111643,0.70513 6.293052,1.294663c1.216501,0.601093 4.164173,1.005682 5.006368,2.300345c0.830494,1.306223 0.935769,5.814434 1.391958,6.31149c0.46789,0.497055 2.035294,-1.606774 2.39791,-2.10383c0.362616,-0.508615 2.316026,-0.208074 2.971063,0.485496c0.655037,0.70513 2.128879,2.404382 2.046995,3.109512c-0.116975,0.71669 -0.386006,1.803278 -0.935769,1.41026c-0.561464,-0.393018 -1.485531,-0.288992 -1.122927,-1.098148c0.374305,-0.797607 0.561464,-2.508408 -0.175457,-2.508408c-0.748611,0 -1.391958,0 -1.391958,0s-1.403659,-0.404578 -2.327727,1.098148s-0.175457,3.005475 0.46789,3.005475s2.152269,0 2.152269,0.393018c0,0.404578 -1.590806,1.606774 -1.497232,2.311904c0.105274,0.70513 1.286684,3.097952 1.684379,3.606567c0.362616,0.497055 2.304336,0.994122 2.854099,1.109708c0.573153,0.092478 -1.298385,0.196515 -0.818793,0.890085c0.46789,0.70513 1.19311,2.404382 2.210751,2.80896c1.017653,0.404578 3.895142,2.196307 4.246057,3.005475c0.374305,0.797607 2.596758,-0.601093 3.064648,-0.70513c0.46789,-0.092478 0.374305,2.10383 1.67269,2.207867c1.286684,0.092478 1.754562,-0.208074 2.865789,-1.109708s0.842195,-2.10383 0.924068,-3.005475c0.105274,-0.901645 0,-1.595215 1.216501,-1.306223c1.216501,0.300552 1.848147,-0.208074 1.754562,-1.202185c-0.093573,-1.005682 -1.111226,-2.207867 0.818793,-2.508408c1.953422,-0.300552 2.971063,-1.595215 4.175874,-1.595215c1.2048,0 4.550179,0.497055 4.901094,0c0.374305,-0.497055 1.953422,-2.80896 2.971063,-2.901437c0.783702,-0.080918 2.62016,-0.242753 4.503387,-0.485496c18.50484,21.789669 29.956316,49.520928 31.26639,79.818394c-1.380257,1.837957 -0.140366,3.525649 0.24564,4.716275c0.011701,0.346791 0.058482,0.670451 0.058482,1.017241c0,1.572095 -0.187158,3.109512 -0.24564,4.670036c-0.011701,0.023119 -0.011701,0.046239 -0.035091,0.069358l-0.000171,-0.0001zm-113.649186,-50.006424c-0.748611,0.150276 -1.976812,-0.601093 -1.976812,-1.653013s-1.064434,1.953554 -0.46789,2.855199c0.619946,0.901645 -1.216501,1.953554 -1.813056,1.953554s-1.064434,-1.340902 -0.912378,-2.693363c0.163756,-1.352461 -0.900677,-2.554647 -2.585068,-2.404382c-1.67269,0.161836 -2.433001,1.502737 -3.029556,1.953554c-0.619946,0.450817 -0.619946,2.993915 -0.46789,3.606567s0.152067,2.716482 -1.356867,2.554647c-1.380257,-0.150276 -1.076135,-2.693363 -0.924068,-3.606567c0.163756,-0.901645 -0.456189,-3.155751 0.163756,-4.346376c0.619946,-1.202185 2.4213,-1.653013 3.649502,-1.803278s3.789868,0.751369 4.246057,0.601093c0.46789,-0.161836 2.596758,-0.161836 3.649502,0c1.064434,0.127157 2.573367,2.832079 1.824745,2.982355l0.000023,0.000011zm2.725423,0.450817c0.46789,0.300552 3.637801,-0.450817 4.257747,0.300552c0.596555,0.751369 -0.631647,0.901645 -2.140569,1.502737c-1.508933,0.601093 -1.976812,0.450817 -2.585068,1.202185s-2.585068,1.040361 -3.497435,1.941994c-0.912378,0.913204 -2.538276,1.444939 -2.87749,0.751369c-0.46789,-0.901645 0.152067,-0.450817 0.292433,-0.901645c0.152067,-0.450817 2.865789,-1.491178 2.865789,-1.491178s3.228404,-3.606567 3.684593,-3.306015zm-12.153305,-5.259581c-0.444488,0.150276 -2.128879,-0.300552 -3.509136,-0.300552c-1.356867,0 -1.064434,-0.901645 -1.67269,-0.739809c-0.596555,0.150276 -1.965111,0.450817 -2.88919,0.901645c-0.912378,0.450817 -2.433001,0.346791 -2.433001,-0.462376c0,-1.202185 0.608245,-0.901645 2.585068,-1.653013c1.976812,-0.751369 4.117381,-2.855199 5.018058,-1.953554c0.912378,0.901645 2.585068,1.953554 3.649502,2.10383c1.076135,0.161836 -0.304122,1.953554 -0.748611,2.10383zm-15.545466,-46.596371c-0.924068,0.300552 -4.058899,1.606774 -3.754776,2.300345c0.116975,0.265873 0.912378,0.797607 2.222452,0.601093c1.321775,-0.208074 3.228404,-0.404578 4.152472,-0.497055c0.912378,-0.104037 1.111226,-1.606774 0.105274,-1.699252c-1.017653,-0.104037 -1.824745,-1.005682 -2.725423,-0.70513zm-11.240927,1.202185c-0.713519,0.300552 -2.842398,-0.497055 -3.953624,0.208074c-0.713519,0.439257 -0.304122,1.895756 0.818793,1.988233c1.111226,0.104037 3.029556,-0.69357 3.228404,-0.092478c0.210549,0.601093 0.912378,3.306015 2.737124,2.404382c1.824745,-0.901645 1.719471,-1.699252 2.222452,-1.803278c0.502982,-0.104037 -0.093573,-2.300345 -0.912378,-2.80896c-0.807104,-0.497055 -3.438953,-0.196515 -4.140783,0.104037l0.000011,-0.000011zm-3.661203,-8.507797c0.198848,0.508615 -0.093573,0.901645 1.321775,1.098148c1.415349,0.208074 2.023605,0.404578 2.842398,0.404578c0.807104,0 0.491281,-1.306223 -0.210549,-2.196307c-0.713519,-0.901645 -0.502982,-0.797607 -2.327727,-1.306223c-1.824745,-0.497055 -3.649502,-0.497055 -4.866003,-0.404578c-1.216501,0.104037 -2.538276,-0.196515 -2.842398,1.202185c-0.152067,0.71669 0.818793,1.294663 2.035294,1.294663s3.84835,-0.589533 4.047198,-0.092478l0.000011,0.000011zm2.64355,5.502323c0.502982,1.098148 0.502982,0.589533 1.93002,0.70513c1.403659,0.104037 2.514885,-1.3987 2.62016,-1.895756c0.105274,-0.508615 -0.713519,-1.502737 -2.631849,-1.306223c-1.93002,0.196515 -7.801974,-0.300552 -8.609078,0.393018c-0.772012,0.670451 0,2.693363 -0.304122,2.901437c-0.304122,0.196515 0.105274,1.098148 0.900677,0.901645c0.807104,-0.196515 1.216501,-2.10383 1.836446,-2.10383c0.608245,0.01156 3.754776,-0.69357 4.257747,0.404578zm-19.054602,-4.103623c0.608245,0.497055 2.140569,0.092478 2.023605,-0.404578c-0.093573,-0.497055 0.619946,-2.508408 -0.596555,-2.600885c-1.216501,-0.092478 -2.924282,1.109708 -4.760728,1.710812c-1.181409,0.381459 -0.912378,1.502737 -0.105274,1.502737s2.842398,-0.70513 3.438953,-0.208074l0,-0.000011zm8.632469,1.803278c-1.017653,0.497055 -1.333476,0.797607 -2.234153,0.601093c-0.912378,-0.196515 -0.912378,-1.803278 -2.538276,-1.502737c-1.614208,0.300552 -1.91833,1.202185 -2.4213,1.606774s-1.625897,0.70513 -2.023605,0.497055c-0.397707,-0.196515 -2.737124,-1.491178 -2.737124,-1.491178s-4.866003,-0.208074 -5.06485,-0.809167c-0.198848,-0.601093 -1.005952,-1.595215 -3.240105,-1.3987s-6.082503,1.502737 -6.690748,1.502737c-0.608245,0 0.72522,1.202185 -0.105274,1.202185c-0.807104,0 -1.813056,-0.092478 -2.117178,0.797607c-0.210549,0.612652 0.912378,0.601093 2.210751,0.601093c1.310074,0 3.450654,0 4.058899,-0.300552c0.608245,-0.300552 3.649502,-1.005682 3.544228,-0.104037c-0.105274,0.913204 1.216501,2.300345 1.91833,2.10383c0.713519,-0.196515 2.140569,-1.502737 2.842398,-0.994122c0.713519,0.497055 0.818793,1.687692 1.520623,1.999793c0.713519,0.288992 2.64355,0.288992 3.555928,0c0.900677,-0.312112 3.438953,-0.312112 4.550179,-0.104037c1.111226,0.208074 4.363021,0.797607 4.667155,0.208074c0.304122,-0.612652 1.216501,-0.70513 1.310074,-1.306223s0.596555,-2.496848 0.596555,-2.496848s-0.596555,-1.109708 -1.602507,-0.612652l0,0.000011zm51.291864,103.538508c-1.391958,0.242753 -1.064434,2.912997 0.608245,2.427501c1.67269,-0.485496 0.772012,-2.681803 -0.608245,-2.427501zm13.217739,-3.583448c-1.216501,-0.300552 -2.585068,0 -3.497435,0.150276c-0.912378,0.150276 -3.497435,2.404382 -3.497435,2.404382s1.67269,0.300552 2.725423,0.300552c1.076135,0 1.684379,0.589533 2.585068,1.040361c0.912378,0.462376 2.585068,-0.601093 3.181612,-0.601093c0.619946,0 1.380257,1.803278 1.532324,-0.150276c0.163756,-1.953554 -1.813056,-2.843639 -3.029556,-3.144191l0,-0.000011zm-42.331871,-97.354175c-0.502982,-1.202185 -3.029556,-1.606774 -3.555928,-0.404578c-0.444488,1.051921 4.058899,1.606774 3.555928,0.404578zm28.973754,89.990764c1.67269,-0.300552 0.748611,-1.664573 -0.619946,-1.502737c-1.380257,0.150276 -1.064434,1.803278 0.619946,1.502737zm20.20092,9.282285c-1.391958,0.254313 -1.076135,2.924557 0.596555,2.439061c1.684379,-0.485496 0.772012,-2.681803 -0.596555,-2.439061zm-18.399565,-4.473533c-1.052744,0.150276 -3.333679,-1.040361 -4.550179,-2.10383c-1.216501,-1.051921 -3.497435,-1.051921 -4.409813,-1.051921c-0.900677,0 -4.56188,1.051921 -4.56188,1.051921c-0.152067,1.502737 1.368567,1.051921 3.193313,1.051921s5.018058,-0.300552 5.602924,0.450817c0.619946,0.739809 3.34538,1.941994 4.117381,2.554647c0.748611,0.601093 3.181612,0.751369 3.333679,0.150276s-1.660989,-2.254106 -2.725423,-2.10383zm-18.118833,-95.897676c-1.520623,-0.104037 -3.450654,-0.104037 -4.667155,0c-1.216501,0.092478 -2.128879,-0.797607 -3.041246,-1.306223c-0.900677,-0.497055 -2.935972,-2.10383 -4.140783,-2.300345c-1.216501,-0.196515 -1.005952,-0.196515 -3.544228,-0.797607c-1.286684,-0.312112 -3.438953,-0.70513 -3.438953,-0.994122c0,-0.300552 -0.608245,1.3987 0.502982,1.907315c1.111226,0.497055 2.935972,1.3987 4.246057,1.895756c1.333476,0.497055 3.84835,0.601093 4.667155,1.606774c0.807104,0.994122 3.544228,1.803278 3.544228,1.803278l3.240105,0.300552c0,0 2.234153,-0.497055 4.56188,-0.300552c2.327727,0.196515 5.76668,0.497055 7.708401,0.404578c1.906629,-0.092478 2.210751,-0.70513 2.433001,-1.098148c0.187158,-0.404578 -3.555928,-1.202185 -4.479996,-1.098148c-0.888976,0.069358 -6.082503,0.069358 -7.591425,-0.023119l-0.000023,0.000011zm5.661406,23.026544c-0.397707,0.450817 1.836446,1.098148 2.234153,0.497055c0.397707,-0.589533 -1.19311,-1.595215 -2.234153,-0.497055zm6.807723,2.09227c1.005952,-0.404578 0.502982,-1.606774 -0.924068,-1.202185c-1.614208,0.462376 -0.105274,1.606774 0.924068,1.202185z" id="svg_2"/>
 </g>
</svg>