<?xml version="1.0"?>
<svg width="2345" height="343" xmlns="http://www.w3.org/2000/svg" xmlns:svg="http://www.w3.org/2000/svg">
 <!-- Created with SVG-edit - https://github.com/SVG-Edit/svgedit-->

 <g class="layer">
  <title>Layer 1</title>
  <g class="layer" id="svg_1"/>
  <path stroke="#000000" fill="#ff0000" stroke-linejoin="bevel" stroke-linecap="square" d="m173.14014,3.7871c-93.89275,0 -170.0059,75.21771 -170.0059,168.00588c0,92.78816 76.11315,168.00588 170.0059,168.00588c93.89276,0 170.0059,-75.21772 170.0059,-168.00588c0,-92.78817 -76.11314,-168.00588 -170.0059,-168.00588zm36.9395,252.03193c-0.92407,0.73981 -2.14057,1.50274 -1.2282,2.39283c0.91238,0.90164 -1.05275,1.51429 -1.05275,1.96511s1.2165,2.84364 0.60825,3.884c-0.60825,1.06347 -1.06444,2.57777 -1.52062,3.47941c-0.45619,0.89009 -1.53233,1.79172 -1.21651,3.14419c0.29244,1.3409 -1.2165,0.89009 -1.2165,2.24255c0,1.3409 1.35687,0.75137 1.05275,2.40438c-0.29243,1.66457 -1.05275,2.11539 -1.05275,3.29446c0,1.20218 0.74862,2.85519 0.74862,3.30601s-0.74862,1.96511 -1.81306,3.14419c-1.07614,1.20219 -1.81306,1.96512 -1.68438,2.69336c0.16376,0.75137 1.2165,1.66458 1.06443,2.12695c-0.15206,0.4277 -1.50893,1.942 -1.35686,2.99392c0.16375,1.04036 1.50893,0.61265 1.81305,1.3409c0.30413,0.75137 -1.81305,1.36402 -0.91237,2.11539c0.91237,0.73981 2.14056,0.58953 1.82474,2.40438c-0.22225,1.29467 0.74861,1.8842 1.47384,2.28879c-10.42213,2.55464 -21.26535,4.06894 -32.48289,4.06894c-74.39366,0 -134.90285,-59.79733 -134.90285,-133.3158c0,-23.96285 6.51529,-46.41142 17.75623,-65.85451c0.92407,-0.4855 1.60251,-0.79761 2.0002,-0.71669c0.76032,0.15028 0.92407,1.20219 2.14057,1.50274c1.2165,0.30055 2.28094,-0.90165 3.04125,-1.35246c0.74861,-0.45082 1.35687,-2.25411 0.59655,-2.10383c-0.76031,0.15027 -2.73712,0 -2.73712,0s2.14057,-1.20219 2.14057,-1.95356s0.29243,-1.95355 1.50893,-2.40438c1.2048,-0.46238 1.2048,-0.16184 0.44449,1.64145c-0.76031,1.80328 1.53232,1.05193 2.433,0.30056s1.52062,-0.15028 3.18161,-1.20219c1.67269,-1.05192 1.67269,-1.65301 2.58507,-1.65301c0.91238,0 2.58507,1.65301 3.49744,1.05192c0.90067,-0.60109 3.49743,0.75137 5.01805,0.75137c1.50894,0 6.37493,1.95355 7.29901,1.95355c0.91238,0 3.6495,1.04036 3.80156,2.99392c0.15206,1.95355 1.05274,1.80328 1.96511,1.80328s3.04124,0.75136 3.04124,1.50273c0,0.75137 -0.60824,3.75685 0.91238,4.50821c1.50893,0.73981 2.88919,1.95356 3.49744,1.65302c0.60824,-0.30055 0,-2.69337 -0.74862,-3.00548c-0.76031,-0.30055 -0.31582,-1.35246 -0.60824,-1.95355c-0.30412,-0.58953 0.91238,-0.58953 1.36857,0.45082c0.45619,1.05192 1.67269,3.00547 2.433,3.00547c0.74861,0 2.433,1.80328 1.96511,2.8552c-0.45619,1.05192 0.45619,2.55465 1.82474,2.55465c1.35687,0 3.04125,2.10383 3.64951,2.2541c0.60824,0.15028 1.36856,0.90165 1.36856,1.35246c0,0.46238 0.76031,3.00548 0.76031,4.05739c0,1.04036 -0.46789,5.24802 -0.61994,6.90102s1.2165,4.50821 2.73712,6.01095c1.50893,1.50274 2.87749,4.35794 3.78987,4.95903c0.92407,0.60109 1.52062,2.2541 2.88919,2.10383c1.36857,-0.15028 2.28093,0.90164 3.49743,3.00547c1.21651,2.10383 2.43301,5.54857 3.34538,5.84912c0.91238,0.30055 2.43301,1.35246 1.66099,2.10383c-0.74861,0.73981 -1.96511,2.40438 -0.59655,2.40438c1.36857,0 1.82474,-0.75137 2.88919,0.61265c1.05274,1.3409 2.433,2.09227 2.26924,3.00548c-0.15206,0.89008 1.2165,1.19062 1.82475,1.3409c0.60824,0.15027 1.97681,2.8552 3.34538,1.65301c1.36857,-1.20218 -1.81306,-2.99391 -2.73713,-3.7684c-0.91237,-0.73981 0,-2.39282 -2.12887,-4.04583c-2.12888,-1.65301 -1.82475,-2.85519 -3.34538,-4.05738c-1.52063,-1.20219 -2.72543,-2.25411 -1.21651,-3.30602c1.52063,-1.05192 1.67269,1.05193 2.28094,2.40439c0.60824,1.3409 3.78987,4.05738 5.15842,5.24802c1.36857,1.20218 3.81326,5.40984 4.56188,5.40984s2.88919,2.40438 2.88919,2.40438s1.2048,1.942 0.74861,2.54309c-0.45619,0.60109 0.61995,2.8552 1.68438,3.45629c1.05275,0.6011 5.32219,2.54309 5.93044,2.8552c0.60824,0.31211 1.81305,2.55465 3.49743,2.55465c1.66099,0 2.88919,0.16183 3.34538,0.61265c0.45619,0.43926 1.81306,2.24255 2.73713,1.20219c0.91238,-1.06347 1.05274,-1.5143 2.433,-1.5143c1.36857,0 1.96511,1.05192 2.72542,1.80328c0.76031,0.75137 2.88919,2.71648 3.95363,2.5662c1.06443,-0.15027 2.433,1.20219 3.19331,0.73981s1.97681,0.28899 2.57337,0.60109c0.63164,0.30056 2.73712,1.36403 2.59675,3.1442c-0.15206,1.81483 1.2048,2.2541 2.12888,2.70492c0.91238,0.45082 2.12888,1.50274 2.90088,2.2541c0.74861,0.72825 2.40961,0.89009 2.87749,1.34091c0.45619,0.45081 0.76031,1.35246 2.12888,0.60109c1.35687,-0.73981 1.07614,-2.09227 1.07614,-2.09227s1.50893,-0.30055 2.26924,0.30055c0.74861,0.57797 1.2165,2.54309 1.68438,2.84364c0.44449,0.30055 1.34517,2.55465 0.73692,4.18454c-0.59655,1.67613 -0.44449,3.30602 -1.06443,3.30602c-0.60825,0 -1.35687,1.96511 -2.28094,2.41594c-0.88897,0.45082 -3.33368,2.55465 -3.18161,3.30601c0.15207,0.72825 1.53233,2.98236 1.2165,4.04583c-0.29243,1.05192 -2.26924,2.2541 -1.80135,3.90711c0.44449,1.66457 3.6495,2.11539 3.77816,3.60656c0.16376,1.5143 2.44471,4.82032 2.74883,6.31149c0.29243,1.50274 2.87749,3.14419 2.87749,5.23646c0,2.12695 3.6495,3.46785 4.40981,3.60657c0.73692,0.15028 2.12888,1.5143 3.18161,1.96511s1.97682,1.34091 2.72543,2.55465s0.61994,3.01704 0.61994,3.45629c0,0.45082 -0.45619,5.08619 -0.91237,7.79111c-0.46789,2.71648 0.58485,4.82031 -0.31583,5.58324l0.00005,-0.00002l0,-0.00001zm-98.1622,-139.65041c0.45619,0.15028 1.36857,1.05193 1.82474,1.05193c0.46789,0 2.73713,1.80327 3.34538,2.40438c0.61995,0.60109 0.61995,2.2541 -0.15206,2.40438s-1.2165,-1.65301 -1.36857,-2.40438c-0.15207,-0.75137 -1.67269,-0.75137 -2.433,-1.20219c-0.76031,-0.45081 -2.45639,-2.67024 -1.2165,-2.2541l0.00001,-0.00001l0,-0.00001zm195.85652,60.36375c-1.68438,2.10383 -1.52062,3.14419 -2.28093,3.30602c-0.74861,0.15027 0.76031,0.75137 1.05274,2.24254c0.25734,1.29467 -0.76031,2.58933 0.73692,3.77997c-5.68479,53.39337 -43.3963,97.49288 -93.76409,113.13289c-0.08188,-0.12716 -0.22225,-0.28899 -0.24564,-0.39302c-0.31582,-0.90164 -0.31582,-2.69336 0.74862,-3.29445c1.06443,-0.61266 3.6495,-2.69337 4.24605,-3.14419c0.60825,-0.46238 1.52063,-2.55465 1.06444,-2.8552c-0.44449,-0.30056 -2.71374,0 -3.04125,-0.45082c-0.30412,-0.45082 -0.30412,-1.06347 1.2165,-2.10383c1.52062,-1.05192 2.28094,-2.56621 2.88919,-3.00548c0.60825,-0.45081 1.81306,-1.35246 2.28094,-2.41594c0.44448,-1.04036 -0.47958,-0.45081 -1.38026,-0.45081s-1.36857,-1.64146 -1.36857,-2.39283s2.28094,0.30056 3.96533,0.6011c1.67269,0.27743 0.90067,-0.75137 0.74861,-1.64146c-0.15207,-0.90164 0.30412,-2.41594 1.2282,-1.96511c0.88898,0.45082 5.60292,-0.15028 6.21117,-0.30055c0.60824,-0.15028 2.26924,-2.84364 2.87749,-3.60657c0.61994,-0.75137 0.74861,-1.49118 0,-1.94199c-0.76031,-0.46238 -1.67269,-2.12695 -1.96511,-2.55465c-0.30413,-0.47394 -0.45619,-3.16731 -0.15207,-3.93023c0.29243,-0.72825 0,4.35794 2.11718,4.97059c2.14057,0.60109 3.34538,0.90164 5.32219,-0.90164c1.97681,-1.79172 3.48575,-3.00548 3.6495,-4.1961c0.15207,-1.20219 0.60825,-2.41595 1.36857,-2.84364c0.76031,-0.45082 1.2165,1.19062 2.12888,-0.75137c0.91238,-1.96512 1.82474,-1.81484 2.73712,-3.45629c0.90068,-1.66458 -1.52062,-3.75685 0.28073,-4.97059c1.83645,-1.19063 5.02976,-2.69336 5.02976,-2.69336s0.91238,-0.45082 2.73713,-0.90165c1.81305,-0.43926 3.78987,-0.16184 4.39811,-1.04036c0.60824,-0.9132 1.2165,-2.8552 2.12888,-3.90711c0.92407,-1.06347 1.97681,-2.70492 1.52062,-3.45629c-0.45619,-0.75137 1.2165,-4.06894 1.06444,-4.95903c-0.15207,-0.90164 -1.52063,-3.01703 0.76031,-4.80875s4.70224,-4.51977 4.866,-5.24802c0.14037,-0.75137 1.97681,-3.90711 1.80135,-5.42141c-0.14036,-1.49118 -1.80135,-3.29445 -2.86578,-3.75684c-1.07614,-0.4277 -3.34538,-0.57797 -4.25775,-1.78016s-3.49744,-2.40438 -4.40981,-2.10383c-0.90068,0.30055 -2.43301,0.58953 -3.64951,-0.17339c-1.2165,-0.72825 -3.18161,-1.65302 -3.94192,-2.24255c-0.77201,-0.58953 -2.73712,-1.04036 -3.6495,-1.04036s-0.76031,-0.61265 -2.12888,1.19062c-1.36857,1.81484 0,2.41595 -2.433,2.10383c-2.4447,-0.27743 0.29243,-0.43925 1.68438,-2.24254c1.34516,-1.79172 -0.16376,-2.8552 -1.68438,-2.39282c-1.52062,0.45081 -0.45619,1.35246 -2.88919,1.80327c-2.4213,0.43926 -2.4213,-1.06346 -0.90068,-1.35246c1.52062,-0.30055 4.24606,-1.65301 4.24606,-2.24254c0,-0.61265 -0.30412,-2.26567 -1.52062,-2.26567s-0.91238,-1.49118 -2.72543,-3.43317c-1.82474,-1.96511 -4.10569,-3.16731 -5.94213,-2.87832c-1.80136,0.30055 -3.18162,0.75137 -4.09399,-0.87852c-0.91238,-1.66458 -1.97682,-1.96512 -2.59676,-2.8552c-0.59656,-0.90165 -2.12888,0 -2.58507,-0.45082s-0.45619,-0.45082 -0.45619,-0.45082s-1.97681,0.45082 -0.90068,-0.90164c1.05275,-1.35246 1.50894,-3.90711 1.05275,-3.75684c-0.44449,0.15027 -1.2165,2.26566 -1.96511,2.11539c-0.74861,-0.15028 -0.16376,-0.46238 -1.68438,-1.35247c-1.52063,-0.90164 -3.94193,-0.15027 -3.94193,0.6011c0,0.75137 -0.76031,1.35246 -0.76031,1.35246s-0.45619,-0.43926 -0.91237,-1.35246c-0.45619,-0.90165 -2.58507,-1.05192 -3.64951,-0.15028c-1.05274,0.90165 -1.66099,-2.26566 -2.4213,-2.26566s-2.26924,0.75136 -3.04124,2.12694c-0.74861,1.34091 -0.44449,3.29446 -1.07614,3.1442c-0.58485,-0.15028 -0.73692,-2.69337 -0.58485,-3.60657c0.14036,-0.91321 1.81305,-2.40438 0.58485,-2.70492c-1.2048,-0.30056 -3.02955,1.50273 -3.77816,1.65301c-0.76032,0.15027 -2.28094,1.20218 -3.19332,2.41594c-0.90067,1.19063 -1.35686,1.94199 -2.28093,2.39282c-0.90068,0.45082 -2.25755,0 -1.95342,-0.45081c0.29243,-0.45082 -2.59676,-2.09227 -3.05295,-1.50274c-0.46789,0.60109 -1.81306,1.05192 -3.18161,1.66457c-1.36857,0.60109 -2.59676,-0.75137 -2.88919,-1.35246s-0.92407,-0.73981 -1.06444,-2.70492c-0.15206,-1.942 0.31583,-4.05739 0.76031,-5.24802c0.44449,-1.20219 -2.28093,-3.60657 -3.34538,-3.46785c-1.06443,0.17339 -2.12887,1.21374 -3.18161,1.05192c-1.07613,-0.13872 -0.60824,-0.43926 -2.28093,-0.43926c-1.67269,0 -0.30412,-0.28899 0,-1.65301c0.29243,-1.34091 -0.60825,-3.15575 1.07613,-4.35794c1.66099,-1.20218 1.06444,-4.05738 0,-4.1961c-1.07613,-0.16184 -3.05294,0.45082 -4.40981,0.30055c-1.35687,-0.16183 -2.433,1.05192 -1.97681,2.39282c0.45619,1.35247 -0.76031,2.25411 -1.2165,2.11539c-0.45619,-0.15027 -1.05275,-0.90164 -2.73713,0.30056c-1.66099,1.19062 -2.26924,0.73981 -3.94192,-0.6011c-1.67269,-1.36402 -3.49743,-2.70492 -3.80156,-4.80875c-0.30412,-2.10383 -0.46789,-4.20766 0.15207,-5.40984c0.59656,-1.20219 0.59656,-3.29446 -0.30412,-3.60657c-0.91238,-0.28899 1.05274,-1.79172 2.11718,-2.09227c1.07613,-0.30055 2.73712,-1.65301 3.04124,-2.25411c0.30412,-0.60109 1.82475,-0.46237 3.48575,-0.46237c1.67269,0 1.97681,0 3.6495,0.90164c1.67269,0.90165 1.97681,-0.45082 1.97681,-0.90164c0,-0.45082 0.60825,-1.35246 2.433,-1.20219c1.82475,0.15028 4.39812,-0.60109 4.86601,-0.15027s1.35686,2.2541 2.26924,1.65301c0.92407,-0.58953 1.2165,-1.65301 1.53233,0.16183c0.29243,1.79172 1.05274,4.50822 2.433,4.95903c1.35686,0.45082 0.60824,2.24255 1.96511,2.39282c1.34516,0.15028 1.98851,-2.84363 1.53232,-3.89556c-0.46789,-1.04036 -1.38026,-4.1961 -2.14057,-4.94746c-0.74861,-0.75137 -0.74861,-2.70493 0.74861,-3.30602c1.52063,-0.60109 5.17013,-3.60657 6.22287,-4.49665c1.07614,-0.91321 3.95363,-1.66457 3.05295,-2.86676c-0.91238,-1.20218 -1.2165,-1.94199 -1.2165,-2.8552s0.91238,-0.60109 1.36857,0s2.26924,-0.90164 1.81305,-1.65301c-0.44449,-0.73981 -0.30412,-1.79172 0.76031,-1.65301c1.06444,0.15027 1.35687,-0.75137 0.91238,-1.35247c-0.45619,-0.60109 1.06443,-1.35246 2.12888,-1.05192c1.07613,0.30056 3.80156,-0.15027 4.25775,-0.75137c0.44448,-0.60109 -0.91238,-1.20218 -0.91238,-2.40438c0,-1.20218 1.81305,-2.2541 2.88919,-2.40438c1.06443,-0.15028 2.4213,0 2.58507,-0.45082c0.14036,-0.45081 1.67269,-1.65301 1.81305,-0.60109c0.16376,1.05192 0,2.8552 1.2165,2.8552c1.2165,0 2.71374,-1.35246 3.18162,-1.49118c0.44448,-0.15027 3.34538,-0.75137 3.95362,-0.90164c0.60824,-0.15028 4.24606,-0.45082 3.80156,-1.50274c-0.45619,-1.04036 -0.91238,-2.09227 -1.38026,-2.54309c-0.45619,-0.45081 -0.90068,0.15028 -1.52062,0.90165c-0.59656,0.75137 -1.67269,0.75137 -1.96511,0.15027c-0.30413,-0.58953 0.14036,-2.39282 -0.91238,-1.80327c-1.07614,0.60109 -1.2165,1.20218 -1.83645,0.90164c-0.60824,-0.30055 -1.2048,-1.35246 -1.2048,-1.35246s1.50893,-0.73981 0.44449,-2.10383c-1.05274,-1.35246 -2.58507,-1.05192 -4.09399,-0.28899c-1.52062,0.73981 -1.38026,0.58953 -3.19331,1.04036s-2.73713,0.90164 -2.73713,0.90164s2.4447,-1.49117 3.49744,-2.40438c1.06443,-0.90164 2.4447,-1.35246 3.34538,-2.2541c0.91238,-0.90165 3.33368,0.45081 3.33368,0.45081s1.2282,-1.20218 1.2282,-0.45081s-0.31582,2.70492 0.59655,2.70492c0.92407,0 3.49744,-1.20219 2.4564,-1.5143c-1.08784,-0.30055 1.50893,0 2.56166,-0.75137c1.07614,-0.75137 2.26925,-0.75137 2.88919,-1.04036c0.60825,-0.30055 1.07614,-1.65301 2.12888,-1.65301c1.07614,0 1.52062,1.35246 0,2.25411s-1.67269,3.15575 -2.433,3.75684c-0.74861,0.60109 -0.30412,1.35246 0.91238,1.20218c1.2165,-0.15027 2.26924,0.15028 3.34538,-0.15027s1.67269,0.30055 1.96511,0.75137c0.30412,0.45081 1.2165,-0.45082 1.2165,-0.45082s1.97681,-0.45082 2.58507,0.30055c0.61994,0.73981 1.07613,-0.45082 0.61994,-1.20218c-0.45619,-0.73981 -1.07613,-1.49118 -1.52062,-2.40439c-0.45619,-0.90164 -1.06443,-1.20218 -2.26924,-0.90164c-1.21651,0.30055 -1.52063,-0.30055 -2.28094,-0.73981c-0.76031,-0.46238 -1.38026,0.60109 -0.76031,-0.46238c0.61995,-1.04036 0.91238,-1.35246 1.36857,-2.2541c0.45619,-0.90165 2.4447,-2.55465 0.45619,-2.99392c-1.97682,-0.46237 -2.59676,-0.75137 -2.88919,-1.65301c-0.30413,-0.90165 -2.58507,-2.55465 -3.18162,-2.55465c-0.61994,0 -2.72542,0 -2.88919,-0.75137c-0.15206,-0.75137 -1.67269,-2.40438 -2.433,-3.15575c-0.74861,-0.75137 -3.6495,-4.05738 -4.10569,-4.35793c-0.45619,-0.30056 -1.06443,-0.15028 -2.433,1.65301c-1.35687,1.81484 -2.57337,2.11539 -3.6495,1.66457c-1.06443,-0.45081 -1.2165,-0.30055 -2.25754,-1.50273c-1.08784,-1.20219 1.05274,-1.35247 0.59655,-2.10383c-0.46789,-0.73981 -2.88919,-1.05192 -4.40981,-1.20219c-1.52063,-0.15028 -2.58507,-1.80328 -4.86601,-1.95355c-2.26924,-0.15028 -5.00636,0.30055 -5.76668,0.30055c-0.74861,0 -0.74861,1.05192 -1.05274,2.70492c-0.31582,1.65301 1.05274,2.10383 -0.31582,2.40438c-1.35687,0.30056 -1.97681,0.45082 -0.60825,1.05193c1.36857,0.60109 3.19332,3.00547 3.19332,3.00547s0,1.35246 -1.07614,2.10383c-1.05274,0.75137 -2.12888,1.50274 -2.72542,0.61265c-0.61995,-0.9132 -2.28094,-0.75137 -1.81306,0.15028c0.44449,0.90164 1.35687,1.35246 1.35687,2.2541c0,0.89009 1.36857,3.1442 0.45619,3.89556c-0.91238,0.75137 -1.96511,0.16184 -2.72543,0.30056s-1.53232,-1.20219 -0.91237,-1.50274c0.59655,-0.30055 -0.16376,-2.55465 -0.16376,-2.55465s-1.81306,2.55465 -1.67269,1.20219c0.16376,-1.35246 -0.74861,-1.50274 -0.74861,-2.55465c0,-1.05192 -0.92407,-1.50274 -2.26925,-1.20218c-1.38025,0.30055 -3.04124,-0.46238 -5.63801,-0.91321c-2.57337,-0.45082 -3.6378,-0.73981 -5.76668,-1.80328c-2.12888,-1.05192 -2.88919,-0.30055 -3.95362,-0.15027c-1.06444,0.15027 -0.60825,-2.10383 -1.97682,-2.39282c-1.35686,-0.31212 -2.11717,0.28899 -2.4213,-1.66458c-0.30412,-1.94199 0.45619,-2.40438 3.78987,-4.50821c3.34538,-2.10383 2.88919,-3.00548 5.47425,-3.30602c2.57337,-0.30055 3.80156,0.30056 3.80156,-0.45081s0.60824,-3.75685 0.60824,-2.25411s3.06465,1.59522 1.68438,2.64713c-1.35687,1.05192 -0.60825,1.20218 0.46789,1.20218c1.06443,0 3.02956,-1.05192 3.02956,-1.05192s2.433,-1.05192 3.04124,-0.15028c0.61995,0.90165 0.61995,1.80328 1.68438,1.80328s3.33368,-1.20218 1.35687,-2.2541c-1.96511,-1.05192 -3.18161,-0.90165 -4.39811,-2.10383s-0.91238,-0.75137 -2.28094,-0.45082c-1.35687,0.30055 -1.35687,-0.45082 -1.82474,-0.45082s-1.2165,0.30055 -1.52063,-0.30055c-0.29243,-0.60109 0.16376,-0.75137 1.69608,-0.75137c1.50894,0 3.33368,0.45082 3.33368,0.45082s1.81306,-0.60109 2.26925,-0.75137c0.45619,-0.15028 2.88919,-0.45082 2.433,-1.79172c-0.46789,-1.35246 -1.97681,-1.35246 -2.433,-1.80328s0.91238,-1.04036 1.67269,-1.35246c0.76031,-0.30055 2.88919,0 2.88919,0s1.36856,0.15028 1.36856,-0.45082s-0.32752,-1.35246 0.59656,-0.90164s0,1.80328 1.36857,1.50274c1.35686,-0.30056 1.67269,0 2.4213,0.45081c0.76031,0.45082 -0.15207,2.25411 -0.90068,2.55465c-0.76031,0.28899 -1.97681,0.89009 -0.30412,1.04036c1.68438,0.16184 2.87749,0.16184 2.87749,0.16184s1.07613,-1.05192 1.53232,-1.95356c0.44449,-0.90164 1.2165,-0.30055 1.81306,0c0.60824,0.289 2.88919,0.75137 0.76031,1.35247c-2.14057,0.60109 -2.58507,1.35246 -3.04125,2.10383c-0.44449,0.75136 -0.61994,1.20218 -2.58507,0.75136c-1.98851,-0.45081 -3.04124,-0.30055 -3.49743,0.45082c-0.45619,0.73981 -0.15207,3.15575 0.61995,2.8552c0.73692,-0.30055 1.50893,-0.30055 2.4213,-0.60109c0.91237,-0.30056 4.56188,0.30055 5.46255,0.15027c0.91238,-0.15027 2.44471,1.50274 2.90088,1.20219c0.45619,-0.30055 1.36857,0.60109 2.26925,1.20218c0.91238,0.6011 0.60824,-1.35246 2.26924,-0.15027c1.68438,1.20218 0.76031,1.20218 1.68438,1.20218c0.88898,0 2.87749,0.15028 2.87749,0.15028s0.16376,-1.49118 1.68438,-1.20219c1.52062,0.30055 2.86579,1.95356 2.71373,0.73981c-0.14036,-1.19062 0.15207,-2.09227 -1.05274,-2.99391c-1.2165,-0.90165 -3.18161,-1.50274 -3.49743,-1.95356c-0.30413,-0.45081 -0.60825,-1.05192 -0.15207,-1.35246c0.45619,-0.28899 2.58507,0.15028 3.78987,0.91321c1.2165,0.75136 2.28093,1.50273 3.19331,0.90164c0.90068,-0.60109 1.98851,-0.90164 2.433,-1.35246c0.44449,-0.46238 1.52062,-1.80328 1.52062,-1.80328s-4.57357,-0.58953 -5.15842,-1.35246c-0.61995,-0.75137 -2.74883,-1.80328 -3.35707,-1.80328s-2.26924,1.05192 -2.87749,-0.45081s-0.60824,-3.30602 -1.2282,-3.4563c-0.58486,-0.15027 -6.98318,-1.05192 -7.88386,-1.50273c-0.91238,-0.45082 -4.56188,-1.50274 -5.93044,-2.25411s-3.34538,-1.80328 -4.55017,-1.80328c-1.21651,0 -6.23456,0.6011 -7.14694,0.45082c-0.91238,-0.15028 -3.6495,0.30055 -4.71394,0.45082c-1.06443,0.15027 1.36857,2.10383 -0.90067,2.55464c-2.28094,0.45082 -1.97682,0.75137 -1.52063,-1.50273c0.44449,-2.25411 -1.53232,-2.8552 -3.49743,-1.95356c-1.97681,0.90165 -5.17013,1.50274 -4.40982,2.55465c0.76032,1.05192 -0.14036,1.81484 1.36857,2.8552c1.52062,1.05192 2.14057,1.35246 4.09399,1.20218c1.98851,-0.15027 3.96533,0.289 3.96533,0.289s0,1.81483 -0.74861,2.10383c-0.76032,0.30055 -1.97682,0.30055 -2.29264,1.20218c-0.29243,0.90165 -1.81306,1.35246 -1.81306,0.90165s0.76032,-1.95356 -0.30412,-2.70493c-1.05274,-0.75137 -1.36856,-0.90164 -2.58507,-0.15027c-1.2165,0.75137 -1.35686,1.05192 -1.97681,-0.15028c-0.60824,-1.20218 -2.433,-2.2541 -2.433,-2.2541s-1.2165,-1.49118 -2.12888,-2.24255c-0.90067,-0.75137 -2.57336,-0.60109 -2.73712,0.15028c-0.15207,0.7398 0.30412,1.49117 0.91238,2.85519c0.60824,1.35247 1.2165,3.89556 0.15206,4.05739c-1.06443,0.15027 -1.2165,0.30055 -2.28093,0.60109c-1.06443,0.30055 -1.52062,-0.45082 -1.52062,-1.65301s-0.46789,-2.25411 -0.15207,-2.70492c0.30412,-0.45082 -1.2165,0.31211 -2.73712,0c-1.52063,-0.289 -2.72543,0.60109 -1.21651,1.06346c1.52063,0.45082 1.83645,2.24255 0.45619,2.69337c-1.36856,0.45082 -6.53869,0 -8.21137,0s-4.09399,0.45082 -4.56188,-0.45082c-0.45619,-0.90164 1.38026,-1.49118 2.433,-1.49118c1.06444,0 4.24606,0.13872 5.46256,-1.50273c1.2165,-1.65302 -1.52062,-1.95356 -2.72542,-1.95356c-1.2165,0 -2.14057,-0.45081 -3.49744,-1.79172c-1.38025,-1.35246 0.91238,-2.2541 0.60825,-2.8552c-0.30412,-0.60109 -1.82475,-0.16183 -3.18161,-0.16183c-1.36857,0 -3.49744,-1.04036 -3.49744,0.16183c0,1.20219 1.67269,4.64692 0.60825,3.89557c-1.06444,-0.73981 -0.91238,-1.80328 -1.67269,-2.70493c-0.76031,-0.90164 -1.96511,-0.75137 -3.49744,-0.60109c-1.50893,0.15028 -4.09399,0.60109 -4.8543,0.45082c-0.74861,-0.15028 -0.15207,-0.15028 -1.82475,-0.90165c-1.66098,-0.75137 -2.433,-0.60109 -3.6495,-1.35246c-1.2048,-0.77449 -0.14036,-1.06347 -2.26924,-1.21375c-2.11718,-0.15027 -1.96511,1.04037 -4.09399,0.75137c-2.12888,-0.30055 -2.73713,0.15028 -4.86601,0c-2.12887,-0.15027 -3.18161,-0.30055 -3.49743,0.75137c-0.29243,1.05192 -0.91238,2.8552 -1.82475,2.8552c-0.90067,0 -1.97681,1.05192 0.91238,1.20219c2.88919,0.15027 1.2282,1.49117 3.80156,1.35246c2.58507,-0.15028 4.866,-0.15028 5.47425,-1.35246c0.60824,-1.20219 1.06443,-1.20219 1.36856,-0.75137c0.29244,0.45081 2.57337,3.14419 2.57337,3.14419s1.53232,1.20218 2.14057,1.50274c0.59655,0.30055 -0.60825,1.65301 -1.82475,0.90164c-1.2165,-0.75137 -3.49743,-0.58953 -4.40981,-1.3409c-0.91238,-0.75137 -5.01806,-0.75137 -6.0825,-0.60109c-1.05275,0.15027 -2.88919,-0.45082 -3.49744,-0.45082c-0.59655,0 -2.58506,1.50274 -2.58506,1.50274s-0.76032,-1.21375 -1.2048,-1.81484c-0.45619,-0.6011 -1.21651,0.60109 -1.82475,0.75137c-0.60824,0.15027 -2.433,-1.20219 -4.25775,-0.6011c-1.82474,0.6011 -1.2165,1.20219 -3.80155,1.05192s-3.18162,-0.60109 -4.09399,-0.45081c-0.92407,0.15027 -0.92407,0.15027 -0.92407,0.15027s0.15207,0.6011 -0.90068,1.20219c-1.06443,0.60109 -1.83644,1.35246 -2.59676,0.45082c-0.74861,-0.90165 -1.2048,-0.90165 -1.66099,-1.05193c-0.46789,-0.15027 -1.38025,-0.90164 -3.34538,-0.46237c-1.97681,0.46237 -5.01805,-0.58953 -5.61461,-0.58953c-0.46789,0 -3.6612,-0.1734 -5.74329,-0.38146c24.66922,-26.4944 59.93604,-43.23256 99.16816,-43.23256c24.89146,0 48.15703,6.80854 68.19419,18.47209c-1.36857,0.83229 -3.73138,0.69357 -4.53848,0.26588c-0.91237,-0.49706 -1.84814,-0.90165 -5.55613,-0.70513c-3.70798,0.20807 -7.77858,1.41026 -6.95979,2.61244c0.8422,1.20219 -1.66099,1.90732 -2.30433,1.30622c-0.64334,-0.60109 -3.61441,0.69357 -3.42726,1.90732c0.18716,1.20218 -0.45618,2.60088 -2.04699,2.30034c-1.56742,-0.31211 -2.67864,0.69357 -2.77222,1.6877c-0.08188,1.00568 -3.61441,1.69925 -3.88344,1.69925c-0.28073,0 -4.81921,-0.09248 -3.15822,1.09815c1.13462,0.7976 1.75456,0.31211 3.15822,0.60109c1.39196,0.30055 2.50319,2.50841 3.24011,2.80896c0.72522,0.30055 1.75456,0 2.21075,-0.60109c0.46789,-0.6011 1.11123,-2.70493 1.11123,-2.70493s0,1.9998 1.13461,2.40438c1.11123,0.40458 3.87174,-0.30055 4.62036,-0.19651c0.74862,0.09248 5.11165,0.70513 6.29306,1.29466c1.2165,0.6011 4.16417,1.00568 5.00636,2.30035c0.8305,1.30622 0.93577,5.81443 1.39196,6.31149c0.46789,0.49705 2.0353,-1.60678 2.39791,-2.10383c0.36262,-0.50862 2.31603,-0.20808 2.97107,0.48549c0.65503,0.70513 2.12887,2.40439 2.04699,3.10952c-0.11697,0.71669 -0.38601,1.80327 -0.93577,1.41026c-0.56146,-0.39302 -1.48553,-0.289 -1.12293,-1.09815c0.37431,-0.79761 0.56147,-2.50841 -0.17545,-2.50841c-0.74861,0 -1.39196,0 -1.39196,0s-1.40366,-0.40458 -2.32773,1.09815s-0.17545,3.00547 0.46789,3.00547s2.15227,0 2.15227,0.39302c0,0.40458 -1.5908,1.60677 -1.49723,2.3119c0.10527,0.70513 1.28668,3.09796 1.68438,3.60657c0.36261,0.49706 2.30433,0.99412 2.8541,1.10971c0.57315,0.09248 -1.29839,0.19651 -0.8188,0.89008c0.46789,0.70513 1.19311,2.40439 2.21076,2.80896c1.01765,0.40458 3.89514,2.19631 4.24605,3.00548c0.37431,0.79761 2.59676,-0.60109 3.06465,-0.70513c0.46789,-0.09248 0.37431,2.10383 1.67269,2.20787c1.28668,0.09247 1.75456,-0.20808 2.86579,-1.10971s0.84219,-2.10383 0.92407,-3.00548c0.10527,-0.90164 0,-1.59521 1.2165,-1.30622c1.2165,0.30055 1.84815,-0.20807 1.75456,-1.20218c-0.09357,-1.00569 -1.11123,-2.20787 0.81879,-2.50841c1.95343,-0.30055 2.97107,-1.59522 4.17588,-1.59522c1.2048,0 4.55018,0.49706 4.90109,0c0.37431,-0.49705 1.95342,-2.80896 2.97106,-2.90143c0.78371,-0.08092 2.62016,-0.24276 4.50339,-0.4855c18.50484,21.78967 29.95632,49.52093 31.26639,79.81839c-1.38026,1.83796 -0.14036,3.52565 0.24564,4.71628c0.0117,0.34679 0.05848,0.67045 0.05848,1.01724c0,1.57209 -0.18715,3.10951 -0.24564,4.67004c-0.0117,0.02311 -0.0117,0.04623 -0.03509,0.06935l-0.00017,-0.0001l-0.00001,0zm-113.64918,-50.00642c-0.74861,0.15028 -1.97682,-0.60109 -1.97682,-1.65301s-1.06443,1.95355 -0.46789,2.85519c0.61995,0.90165 -1.2165,1.95356 -1.81305,1.95356s-1.06444,-1.3409 -0.91238,-2.69336c0.16376,-1.35247 -0.90068,-2.55465 -2.58507,-2.40439c-1.67269,0.16184 -2.433,1.50274 -3.02955,1.95356c-0.61995,0.45082 -0.61995,2.99391 -0.46789,3.60657s0.15206,2.71648 -1.35687,2.55464c-1.38026,-0.15027 -1.07614,-2.69336 -0.92407,-3.60657c0.16376,-0.90164 -0.45619,-3.15575 0.16376,-4.34637c0.61994,-1.20219 2.4213,-1.65301 3.6495,-1.80328s3.78987,0.75137 4.24606,0.60109c0.46789,-0.16183 2.59675,-0.16183 3.6495,0c1.06443,0.12716 2.57337,2.83208 1.82474,2.98236l0.00003,0.00001zm2.72542,0.45082c0.46789,0.30055 3.6378,-0.45082 4.25775,0.30055c0.59655,0.75137 -0.63165,0.90164 -2.14057,1.50274c-1.50894,0.60109 -1.97681,0.45081 -2.58507,1.20218s-2.58507,1.04036 -3.49744,1.94199c-0.91237,0.91321 -2.53827,1.44494 -2.87749,0.75137c-0.46789,-0.90164 0.15207,-0.45081 0.29244,-0.90164c0.15206,-0.45082 2.86579,-1.49118 2.86579,-1.49118s3.2284,-3.60657 3.68459,-3.30601zm-12.1533,-5.25958c-0.44449,0.15027 -2.12888,-0.30056 -3.50914,-0.30056c-1.35687,0 -1.06444,-0.90164 -1.67269,-0.73981c-0.59656,0.15028 -1.96511,0.45082 -2.88919,0.90165c-0.91238,0.45082 -2.433,0.34679 -2.433,-0.46238c0,-1.20218 0.60824,-0.90164 2.58507,-1.65301c1.97681,-0.75137 4.11738,-2.8552 5.01805,-1.95355c0.91238,0.90164 2.58507,1.95355 3.64951,2.10383c1.07613,0.16183 -0.30413,1.95355 -0.74861,2.10383zm-15.54547,-46.59638c-0.92407,0.30056 -4.0589,1.60678 -3.75478,2.30035c0.11698,0.26587 0.91238,0.79761 2.22246,0.60109c1.32177,-0.20807 3.2284,-0.40458 4.15247,-0.49705c0.91237,-0.10404 1.11122,-1.60678 0.10527,-1.69926c-1.01765,-0.10403 -1.82474,-1.00568 -2.72542,-0.70513zm-11.24093,1.20219c-0.71352,0.30055 -2.8424,-0.49706 -3.95362,0.20807c-0.71352,0.43926 -0.30412,1.89576 0.81879,1.98824c1.11123,0.10403 3.02956,-0.69357 3.22841,-0.09248c0.21054,0.60109 0.91237,3.30601 2.73712,2.40438c1.82474,-0.90165 1.71947,-1.69925 2.22245,-1.80328c0.50298,-0.10404 -0.09357,-2.30034 -0.91238,-2.80896c-0.8071,-0.49705 -3.43895,-0.19651 -4.14078,0.10404l0.00001,-0.00001zm-3.6612,-8.5078c0.19885,0.50862 -0.09357,0.90165 1.32177,1.09815c1.41535,0.20807 2.02361,0.40458 2.8424,0.40458c0.80711,0 0.49128,-1.30623 -0.21055,-2.19631c-0.71352,-0.90164 -0.50298,-0.79761 -2.32772,-1.30622c-1.82475,-0.49706 -3.64951,-0.49706 -4.86601,-0.40458c-1.2165,0.10404 -2.53827,-0.19652 -2.84239,1.20218c-0.15207,0.71669 0.81879,1.29467 2.03529,1.29467s3.84835,-0.58954 4.0472,-0.09248l0.00001,0.00001zm2.64355,5.50233c0.50298,1.09814 0.50298,0.58953 1.93002,0.70513c1.40366,0.10403 2.51488,-1.39871 2.62016,-1.89576c0.10527,-0.50862 -0.71352,-1.50274 -2.63185,-1.30622c-1.93002,0.19651 -7.80197,-0.30056 -8.60908,0.39301c-0.77201,0.67045 0,2.69337 -0.30412,2.90144c-0.30412,0.19652 0.10527,1.09815 0.90068,0.90165c0.8071,-0.19652 1.2165,-2.10383 1.83644,-2.10383c0.60825,0.01156 3.75478,-0.69357 4.25775,0.40457l0,0.00001zm-19.0546,-4.10363c0.60824,0.49706 2.14057,0.09248 2.0236,-0.40458c-0.09357,-0.49705 0.61995,-2.5084 -0.59655,-2.60088c-1.2165,-0.09248 -2.92428,1.10971 -4.76073,1.71081c-1.18141,0.38146 -0.91238,1.50274 -0.10527,1.50274s2.84239,-0.70513 3.43895,-0.20808l0,-0.00001zm8.63247,1.80328c-1.01766,0.49706 -1.33348,0.79761 -2.23416,0.60109c-0.91237,-0.19651 -0.91237,-1.80327 -2.53827,-1.50273c-1.61421,0.30055 -1.91833,1.20218 -2.4213,1.60677s-1.6259,0.70513 -2.02361,0.49706c-0.3977,-0.19652 -2.73712,-1.49118 -2.73712,-1.49118s-4.866,-0.20808 -5.06485,-0.80917c-0.19885,-0.60109 -1.00595,-1.59521 -3.24011,-1.3987s-6.0825,1.50274 -6.69074,1.50274c-0.60825,0 0.72522,1.20218 -0.10528,1.20218c-0.8071,0 -1.81305,-0.09248 -2.11718,0.79761c-0.21055,0.61265 0.91238,0.60109 2.21075,0.60109c1.31008,0 3.45066,0 4.0589,-0.30055c0.60825,-0.30055 3.64951,-1.00568 3.54423,-0.10404c-0.10527,0.91321 1.2165,2.30035 1.91833,2.10383c0.71352,-0.19651 2.14057,-1.50273 2.8424,-0.99412c0.71352,0.49706 0.81879,1.68769 1.52062,1.99979c0.71352,0.289 2.64355,0.289 3.55593,0c0.90068,-0.31211 3.43895,-0.31211 4.55018,-0.10403c1.11123,0.20807 4.36302,0.7976 4.66715,0.20807c0.30413,-0.61265 1.21651,-0.70513 1.31008,-1.30622s0.59655,-2.49685 0.59655,-2.49685s-0.59655,-1.10971 -1.6025,-0.61265l0,0.00001zm51.29186,103.53851c-1.39196,0.24275 -1.06443,2.91299 0.60825,2.4275c1.67269,-0.4855 0.77201,-2.6818 -0.60825,-2.4275zm13.21774,-3.58345c-1.2165,-0.30055 -2.58507,0 -3.49744,0.15028c-0.91237,0.15027 -3.49743,2.40438 -3.49743,2.40438s1.67269,0.30055 2.72542,0.30055c1.07614,0 1.68438,0.58953 2.58507,1.04036c0.91238,0.46238 2.58507,-0.60109 3.18161,-0.60109c0.61995,0 1.38026,1.80328 1.53233,-0.15028c0.16375,-1.95355 -1.81306,-2.84364 -3.02956,-3.14419l0,-0.00001zm-42.33187,-97.35417c-0.50298,-1.20219 -3.02956,-1.60678 -3.55593,-0.40458c-0.44449,1.05192 4.0589,1.60677 3.55593,0.40458zm28.97375,89.99076c1.67269,-0.30055 0.74861,-1.66457 -0.61994,-1.50274c-1.38026,0.15028 -1.06444,1.80328 0.61994,1.50274zm20.20092,9.28228c-1.39196,0.25432 -1.07613,2.92456 0.59656,2.43907c1.68438,-0.4855 0.77201,-2.68181 -0.59656,-2.43907zm-18.39956,-4.47353c-1.05275,0.15028 -3.33368,-1.04036 -4.55018,-2.10383c-1.2165,-1.05192 -3.49744,-1.05192 -4.40981,-1.05192c-0.90068,0 -4.56188,1.05192 -4.56188,1.05192c-0.15207,1.50274 1.36856,1.05192 3.19331,1.05192s5.01806,-0.30055 5.60292,0.45082c0.61995,0.73981 3.34538,1.94199 4.11738,2.55465c0.74861,0.60109 3.18162,0.75137 3.33368,0.15027s-1.66099,-2.2541 -2.72542,-2.10383zm-18.11884,-95.89767c-1.52062,-0.10404 -3.45065,-0.10404 -4.66715,0c-1.2165,0.09247 -2.12888,-0.79761 -3.04125,-1.30623c-0.90067,-0.49705 -2.93597,-2.10383 -4.14078,-2.30034c-1.2165,-0.19652 -1.00595,-0.19652 -3.54423,-0.79761c-1.28668,-0.31211 -3.43895,-0.70513 -3.43895,-0.99412c0,-0.30055 -0.60825,1.3987 0.50298,1.90731c1.11123,0.49706 2.93597,1.3987 4.24606,1.89576c1.33347,0.49705 3.84835,0.60109 4.66715,1.60677c0.80711,0.99413 3.54423,1.80328 3.54423,1.80328l3.24011,0.30055c0,0 2.23415,-0.49705 4.56188,-0.30055c2.32772,0.19652 5.76668,0.49706 7.7084,0.40458c1.90663,-0.09248 2.21075,-0.70513 2.433,-1.09815c0.18716,-0.40458 -3.55593,-1.20218 -4.48,-1.09815c-0.88897,0.06936 -6.0825,0.06936 -7.59142,-0.02312l-0.00003,0.00002zm5.66141,23.02654c-0.39771,0.45082 1.83645,1.09815 2.23415,0.49705c0.39771,-0.58953 -1.19311,-1.59521 -2.23415,-0.49705zm6.80772,2.09227c1.00596,-0.40458 0.50299,-1.60677 -0.92406,-1.20219c-1.61421,0.46238 -0.10528,1.60678 0.92406,1.20219z" id="svg_2"/>
  <text fill="#000000" stroke-width="0" x="431.123943" y="114.724283" id="svg_3" font-size="24" font-family="Calibri" text-anchor="middle" xml:space="preserve" transform="matrix(10.187510531686824,0,0,8.620110402434406,-3080.0025858133095,-747.9826685619106) " stroke="#000000">Hack The World</text>
 </g>
</svg>